# xmcd
#
# Track frame offsets: 
#        182
#        15185
#        33042
#        46845
#        61747
#        78815
#        91672
#        105645
#        122650
#        142527
#
# Disc length: 2079 seconds
#
# Revision: 4
# Processed by: cddbd v1.5.2PL0 Copyright (c) Steve Scherf et al.
# Submitted via: ExactAudioCopyFreeDBPlugin 1.0
#
DISCID=5a081d0a
DTITLE=Alabama - Born Country
DYEAR=1997
DGENRE=Country
TTITLE0=Born Country
TTITLE1=Dixieland Delight
TTITLE2=Tennessee River
TTITLE3=Alabama Sky
TTITLE4=Country Side Of Life
TTITLE5=Green River
TTITLE6=Louisiana Moon
TTITLE7=If You're Gonna To Play In Texas (You Gotta Have A Fiddle In T
TTITLE7=he Band)
TTITLE8=Carolina Mountain Dewe
TTITLE9=You Can't Take The Country Out Of Me
EXTD=
EXTT0=
EXTT1=
EXTT2=
EXTT3=
EXTT4=
EXTT5=
EXTT6=
EXTT7=
EXTT8=
EXTT9=
PLAYORDER=
